<?xml version="1.0" encoding="utf-8"?>
<!-- Generator: Adobe Illustrator 24.3.0, SVG Export Plug-In . SVG Version: 6.00 Build 0)  -->
<svg version="1.1" id="Layer_1" xmlns="http://www.w3.org/2000/svg" xmlns:xlink="http://www.w3.org/1999/xlink" x="0px" y="0px"
	 viewBox="0 0 45.2 40.6" style="enable-background:new 0 0 45.2 40.6;" xml:space="preserve">
<style type="text/css">
	.st0{fill:none;stroke:#F9A94B;stroke-width:2;stroke-miterlimit:10;}
</style>
<path class="st0" d="M34.8,17c-1-0.1-2-0.1-3,0.1v-0.5c-0.4-4.9-4.3-8.9-9.2-9.4c-1.3-0.1-2.7,0-4,0.4c-3.4,1.1-6,3.8-6.9,7.2
	c-0.2,0-0.5,0.1-0.7,0.1s-0.7,0.1-1,0.2s-0.6,0.2-0.9,0.3c-3.9,1.5-6.4,5.3-6.4,9.5c0,0.2,0,0.5,0,0.7c0,0.3,0,0.5,0.1,0.8
	c0,0.1,0,0.2,0,0.3c0,0.1,0,0.2,0.1,0.3v0.1c0,0.2,0.1,0.4,0.1,0.6c0.1,0.2,0.1,0.4,0.2,0.6l0.1,0.2c0.1,0.2,0.2,0.5,0.3,0.7
	c0,0.1,0.1,0.1,0.1,0.2c0,0.2,0.1,0.4,0.3,0.6c1.9,3.2,5.5,5.2,9.2,5.1h20.3c5,0,9.1-4,9.1-9C42.7,21.6,39.3,17.7,34.8,17z"/>
</svg>
