<?xml version="1.0" encoding="utf-8"?>
<!-- Generator: Adobe Illustrator 24.3.0, SVG Export Plug-In . SVG Version: 6.00 Build 0)  -->
<svg version="1.1" id="Layer_1" xmlns="http://www.w3.org/2000/svg" xmlns:xlink="http://www.w3.org/1999/xlink" x="0px" y="0px"
	 viewBox="0 0 97.5 79.2" style="enable-background:new 0 0 97.5 79.2;" xml:space="preserve">
<style type="text/css">
	.st0{fill-rule:evenodd;clip-rule:evenodd;fill:#F9A94B;}
</style>
<path class="st0" d="M86.4,69.9c-1.7,0.1-3.1,0-4.4-0.5c-2.1-0.9-2.4-2.6-0.9-4.2c2.1-2.3,2.1-2.3-1-3.3c-1-0.3-1.9-0.8-2.8-1.3
	c-2.4-1.4-4.9-2-7.3,0c-0.6,0.5-1.4,0.7-2.1,0.7c-2.5-0.1-4.9,0.1-7.3,0.9c-1.5,0.6-3.2,0.7-4.8,0.6c-3.9-0.3-7.8,0.5-11.6,1.2
	c-1,0.2-2,0.3-3,0.5c-2.2,0.3-4.1,1.1-5.1,3.3c-0.6,1.3-1.7,1.9-3,2c-1.6,0.1-3.2,0.1-4.8,0.1c-0.9,0-1.7-0.4-2-1.3
	c-0.3-1,0.4-1.6,1-2.1c0.9-0.7,1.7-1.4,2.8-1.7c0.5-0.1,1.1-0.2,1.1-0.9c0-0.7-0.6-0.9-1.2-1.1c-1.1-0.4-2.3-0.6-3.3-1.3
	c-4.8-3.5-8.3-8-9.3-14c-0.6-3.5-1.7-7-0.6-10.6c0.3-1.1-0.2-1.9-1.2-2.6c-1.3-0.8-2.6-1.1-4.1-1.1c-2,0-3.8-0.3-3.9-2.9
	c0-0.6-0.6-0.8-1-1.1c-0.4-0.4-0.9-0.8-1.2-1.3c-1.9-2.7-1.6-3.6,1.6-4.5c1.3-0.4,2.5-1,3.9-1.1c0.6,0,1-0.3,1.2-0.8
	c0.7-3,3.3-3.6,5.6-4.5c2.2-0.9,4.1-1.9,4.5-4.6c0.1-0.7,0.3-2,1.6-0.7c0.1,0.1,0.3,0,0.4,0c1.5-1,1.5,0.1,1.6,1.1
	c0.2,2.5,1.3,4.6,2.8,6.7c2.5,3.6,5.5,6.7,8.4,9.9c1.6,1.8,3.8,2.9,6.2,3.4c6.3,1.5,12.8,1.7,19.3,1.3c2.4-0.1,4.7-0.2,7.1-0.2
	c2.6,0,5.3,0.1,7.9-0.2C83.7,33,88.2,36,92,40.2c1.8,2,2.9,4.8,2.7,7.7c-0.1,1.6,0.2,3.2,0.2,4.8c0.1,2.2-0.5,4-2.1,5.4
	c-0.8,0.7-0.8,1.5-0.6,2.3c0.5,1.6,0.4,3.2,0.4,4.8c-0.1,3.2-1.5,4.6-4.7,4.8C87.2,69.9,86.6,69.9,86.4,69.9z"/>
</svg>
