<?xml version="1.0" encoding="utf-8"?>
<!-- Generator: Adobe Illustrator 24.3.0, SVG Export Plug-In . SVG Version: 6.00 Build 0)  -->
<svg version="1.1" id="Layer_1" xmlns="http://www.w3.org/2000/svg" xmlns:xlink="http://www.w3.org/1999/xlink" x="0px" y="0px"
	 viewBox="0 0 141 151.2" style="enable-background:new 0 0 141 151.2;" xml:space="preserve">
<style type="text/css">
	.st0{fill:#8E8E8E;}
</style>
<path class="st0" d="M39.5,51.5c-8.6,0-24.1,4.3-24.1,15s15.5,15,24.1,15l0,0c8.6,0,24.1-4.3,24.1-15S48,51.5,39.5,51.5z"/>
<ellipse class="st0" cx="28.8" cy="33.3" rx="10.7" ry="15"/>
<ellipse class="st0" cx="50.7" cy="33.3" rx="9.1" ry="13.4"/>
<ellipse class="st0" cx="10.6" cy="46.7" rx="8.6" ry="10.2"/>
<ellipse class="st0" cx="68.4" cy="46.7" rx="7" ry="8.6"/>
<path class="st0" d="M95.2,108.8c-8.6,0-24.1,4.3-24.1,15s15.5,15,24.1,15l0,0c8.6,0,24.1-4.3,24.1-15S103.8,108.8,95.2,108.8z"/>
<ellipse class="st0" cx="84.5" cy="90.6" rx="10.7" ry="15"/>
<ellipse class="st0" cx="106.5" cy="90.6" rx="9.1" ry="13.4"/>
<ellipse class="st0" cx="66.3" cy="104" rx="8.6" ry="10.2"/>
<ellipse class="st0" cx="124.1" cy="104" rx="7" ry="8.6"/>
</svg>
