<svg xmlns="http://www.w3.org/2000/svg" viewBox="0 0 61.41 76.76249999999999" x="0px" y="0px"><title>волныРесурс 26</title><g data-name="Слой 2"><g data-name="Слой 1"><path d="M30.71,12.25A18.46,18.46,0,1,0,49.17,30.71,18.48,18.48,0,0,0,30.71,12.25Zm0,32.92A14.46,14.46,0,1,1,45.17,30.71,14.48,14.48,0,0,1,30.71,45.17Z"/><path d="M30.71,9.43a2,2,0,0,0,2-2V2a2,2,0,0,0-4,0V7.43A2,2,0,0,0,30.71,9.43Z"/><path d="M30.71,52a2,2,0,0,0-2,2v5.43a2,2,0,0,0,4,0V54A2,2,0,0,0,30.71,52Z"/><path d="M9.43,30.71a2,2,0,0,0-2-2H2a2,2,0,0,0,0,4H7.43A2,2,0,0,0,9.43,30.71Z"/><path d="M59.41,28.71H54a2,2,0,1,0,0,4h5.43a2,2,0,0,0,0-4Z"/><path d="M12.83,15.66a2,2,0,0,0,2.83-2.83L11.82,9A2,2,0,0,0,9,11.82Z"/><path d="M48.58,45.75a2,2,0,0,0-2.83,2.83l3.84,3.84a2,2,0,0,0,2.83-2.83Z"/><path d="M12.83,45.75,9,49.59a2,2,0,1,0,2.83,2.83l3.84-3.84a2,2,0,0,0-2.83-2.83Z"/><path d="M47.17,16.25a2,2,0,0,0,1.41-.59l3.84-3.84A2,2,0,1,0,49.59,9l-3.84,3.84a2,2,0,0,0,1.41,3.41Z"/></g></g><text x="0" y="76.41" fill="#000000" font-size="5px" font-weight="bold" font-family="'Helvetica Neue', Helvetica, Arial-Unicode, Arial, Sans-serif">Created by Катя Гнидаш</text><text x="0" y="81.41" fill="#000000" font-size="5px" font-weight="bold" font-family="'Helvetica Neue', Helvetica, Arial-Unicode, Arial, Sans-serif">from the Noun Project</text></svg>