<?xml version="1.0" encoding="utf-8"?>
<!-- Generator: Adobe Illustrator 24.3.0, SVG Export Plug-In . SVG Version: 6.00 Build 0)  -->
<svg version="1.1" id="Layer_1" xmlns="http://www.w3.org/2000/svg" xmlns:xlink="http://www.w3.org/1999/xlink" x="0px" y="0px"
	 viewBox="0 0 100 104" style="enable-background:new 0 0 100 104;" xml:space="preserve">
<style type="text/css">
	.st0{fill:#F9A94B;}
</style>
<path class="st0" d="M73.2,21.7c-2.9,0-5.8,0.6-8.5,1.7C62.4,12.7,52.9,5,41.6,5C28.5,5,17.9,15.6,17.9,28.6c0,0.5,0,1.1,0.1,1.6
	c-7.6,2.2-12.9,9-12.9,17C5,57,13,65,22.8,65H34v8c0,1.1,0.9,2,2,2s2-0.9,2-2v-8h24v8c0,1.1,0.9,2,2,2s2-0.9,2-2v-8h7.2
	c12,0,21.8-9.7,21.8-21.7S85.2,21.7,73.2,21.7z M73.2,61H22.8C15.2,61,9,54.8,9,47.3c0-6.7,4.8-12.3,11.4-13.5
	c1.1-0.2,1.8-1.2,1.6-2.3c-0.1-1-0.2-1.9-0.2-2.9C21.9,17.8,30.7,9,41.6,9c10.2,0,18.6,7.6,19.7,17.6c0.1,0.7,0.5,1.3,1.1,1.6
	s1.3,0.3,1.9-0.1c2.7-1.6,5.8-2.4,9-2.4C83,25.7,91,33.6,91,43.3S83,61,73.2,61z M38,83v10c0,1.1-0.9,2-2,2s-2-0.9-2-2V83
	c0-1.1,0.9-2,2-2S38,81.9,38,83z M52,73v10c0,1.1-0.9,2-2,2s-2-0.9-2-2V73c0-1.1,0.9-2,2-2S52,71.9,52,73z M24,73v10
	c0,1.1-0.9,2-2,2s-2-0.9-2-2V73c0-1.1,0.9-2,2-2S24,71.9,24,73z M80,73v10c0,1.1-0.9,2-2,2s-2-0.9-2-2V73c0-1.1,0.9-2,2-2
	S80,71.9,80,73z M66,83v10c0,1.1-0.9,2-2,2s-2-0.9-2-2V83c0-1.1,0.9-2,2-2S66,81.9,66,83z"/>
</svg>
