<?xml version="1.0" encoding="utf-8"?>
<!-- Generator: Adobe Illustrator 24.3.0, SVG Export Plug-In . SVG Version: 6.00 Build 0)  -->
<svg version="1.1" id="Layer_1" xmlns="http://www.w3.org/2000/svg" xmlns:xlink="http://www.w3.org/1999/xlink" x="0px" y="0px"
	 viewBox="0 0 61.4 76.8" style="enable-background:new 0 0 61.4 76.8;" xml:space="preserve">
<style type="text/css">
	.st0{fill:#F9A94B;}
</style>
<g>
	<g>
		<path class="st0" d="M30.7,12.2c-10.2,0-18.5,8.3-18.5,18.5s8.3,18.5,18.5,18.5s18.5-8.3,18.5-18.5l0,0
			C49.2,20.5,40.9,12.3,30.7,12.2z M30.7,45.2c-8,0-14.5-6.5-14.5-14.5s6.5-14.5,14.5-14.5s14.5,6.5,14.5,14.5l0,0
			C45.2,38.7,38.7,45.2,30.7,45.2z"/>
		<path class="st0" d="M30.7,9.4c1.1,0,2-0.9,2-2V2c0-1.1-0.9-2-2-2s-2,0.9-2,2v5.4C28.7,8.5,29.6,9.4,30.7,9.4L30.7,9.4z"/>
		<path class="st0" d="M30.7,52c-1.1,0-2,0.9-2,2v5.4c0,1.1,0.9,2,2,2s2-0.9,2-2V54C32.7,52.9,31.8,52,30.7,52z"/>
		<path class="st0" d="M9.4,30.7c0-1.1-0.9-2-2-2H2c-1.1,0-2,0.9-2,2s0.9,2,2,2h5.4C8.5,32.7,9.4,31.8,9.4,30.7L9.4,30.7z"/>
		<path class="st0" d="M59.4,28.7H54c-1.1,0-2,0.9-2,2s0.9,2,2,2h5.4c1.1,0,2-0.9,2-2S60.5,28.7,59.4,28.7L59.4,28.7z"/>
		<path class="st0" d="M12.8,15.7c0.8,0.8,2,0.8,2.8,0c0.8-0.8,0.8-2,0-2.8L11.8,9C11,8.3,9.7,8.4,9,9.2c-0.6,0.7-0.6,1.9,0,2.6
			L12.8,15.7z"/>
		<path class="st0" d="M48.6,45.8c-0.8-0.8-2-0.8-2.8,0s-0.8,2,0,2.8l3.8,3.8c0.8,0.8,2,0.8,2.8,0s0.8-2,0-2.8l0,0L48.6,45.8z"/>
		<path class="st0" d="M12.8,45.8L9,49.6c-0.8,0.8-0.8,2,0,2.8s2,0.8,2.8,0l0,0l3.8-3.8c0.8-0.8,0.8-2,0-2.8
			C14.9,45,13.6,45,12.8,45.8L12.8,45.8L12.8,45.8z"/>
		<path class="st0" d="M47.2,16.2c0.5,0,1-0.2,1.4-0.6l3.8-3.8c0.8-0.7,0.9-2,0.1-2.8c-0.7-0.8-2-0.9-2.8-0.1L49.6,9l-3.8,3.8
			c-0.8,0.8-0.8,2,0,2.8C46.1,16,46.6,16.2,47.2,16.2L47.2,16.2z"/>
	</g>
</g>
</svg>
