<?xml version="1.0" encoding="utf-8"?>
<!-- Generator: Adobe Illustrator 24.3.0, SVG Export Plug-In . SVG Version: 6.00 Build 0)  -->
<svg version="1.1" xmlns="http://www.w3.org/2000/svg" xmlns:xlink="http://www.w3.org/1999/xlink" x="0px" y="0px"
	 viewBox="0 0 100 125" style="enable-background:new 0 0 100 125;" xml:space="preserve">
<g id="Layer_2">
</g>
<g id="Layer_1">
	<path d="M85.2,31.9c-3.1-15.7-16.8-27-33-27c-15,0-28.4,10.2-32.4,24.6c-8.9,2.8-15,11-15,20.6c0,11.9,9.7,21.6,21.6,21.6H31
		l-3.4,6.5c-0.3,0.5-1.7,2.3-3.2,2.7c-0.4,0.1-1,0.2-2-0.4c-1.4-0.8-3.2-0.4-4.1,1c-0.8,1.4-0.4,3.2,1,4.1c1.4,0.9,3,1.3,4.5,1.3
		c0.7,0,1.3-0.1,2-0.2c4.1-1,6.6-5,6.9-5.5c0,0,0.1-0.1,0.1-0.1l4.9-9.4h10.8l-7.8,14.8c-0.3,0.5-1.7,2.3-3.2,2.7
		c-0.4,0.1-1,0.2-2-0.4c-1.4-0.8-3.2-0.4-4.1,1c-0.8,1.4-0.4,3.2,1,4.1c1.4,0.9,3,1.3,4.5,1.3c0.7,0,1.3-0.1,2-0.2
		c4.1-1,6.6-5,6.9-5.5c0,0,0-0.1,0.1-0.1l9.4-17.7h10.9l-6.1,11.6c-0.3,0.5-1.7,2.3-3.2,2.7c-0.4,0.1-1,0.2-2-0.4
		c-1.4-0.9-3.2-0.4-4.1,1s-0.4,3.2,1,4.1c1.4,0.9,3,1.3,4.5,1.3c0.7,0,1.3-0.1,2-0.2c4.1-1,6.6-5,6.9-5.5c0,0,0.1-0.1,0.1-0.1
		l7.5-14.4h0.6c11.9,0,21.6-9.7,21.6-21.6C95.1,42.7,91.4,35.8,85.2,31.9z M73.5,65.7h-47c-8.6,0-15.7-7-15.7-15.7
		c0-7.4,5-13.6,12.2-15.3l1.8-0.4l0.4-1.8c2.8-12.6,14.1-21.7,27-21.7c13.7,0,25.2,9.8,27.3,23.4l0.2,1.4l1.3,0.7
		c5,2.8,8.1,8,8.1,13.7C89.2,58.7,82.2,65.7,73.5,65.7z"/>
</g>
</svg>
